<svg width="157" height="29" viewBox="0 0 157 29" fill="none" xmlns="http://www.w3.org/2000/svg">
<path d="M3.64014 27.5723C3.09326 27.5723 2.59766 27.4925 2.15332 27.333C1.70898 27.1849 1.32731 26.9741 1.0083 26.7007C0.68929 26.4272 0.438639 26.1082 0.256348 25.7437C0.0854492 25.3677 0 24.9632 0 24.5303C0 23.5391 0.341797 22.7643 1.02539 22.2061C1.72038 21.6364 2.67171 21.3516 3.87939 21.3516C4.74528 21.3516 5.53711 21.4712 6.25488 21.7104C6.97266 21.9383 7.63916 22.2345 8.25439 22.5991C8.40251 21.9953 8.47656 21.3117 8.47656 20.5483C8.47656 19.7622 8.44238 18.9932 8.37402 18.2412C8.30566 17.4779 8.22591 16.7259 8.13477 15.9854C8.05501 15.2334 7.98096 14.4928 7.9126 13.7637C7.84424 13.0345 7.81006 12.3053 7.81006 11.5762C7.81006 9.93555 7.96956 8.51709 8.28857 7.3208C8.60758 6.11312 9.02344 5.08773 9.53613 4.24463C10.0602 3.40153 10.6527 2.71794 11.3135 2.19385C11.9857 1.66976 12.6693 1.2596 13.3643 0.963379C14.0592 0.667155 14.7371 0.467773 15.3979 0.365234C16.0701 0.262695 16.6683 0.211426 17.1924 0.211426C17.9785 0.211426 18.6849 0.342448 19.3115 0.604492C19.9495 0.866536 20.4907 1.21403 20.9351 1.64697C21.3908 2.07992 21.7383 2.57552 21.9775 3.13379C22.2168 3.68066 22.3364 4.24463 22.3364 4.82568C22.3364 5.34977 22.2738 5.84538 22.1484 6.3125C22.0231 6.77962 21.8807 7.19548 21.7212 7.56006C21.5731 7.91325 21.4307 8.19808 21.2939 8.41455C21.1572 8.63102 21.0832 8.75065 21.0718 8.77344L20.542 8.39746C20.7471 8.08984 20.9351 7.74805 21.106 7.37207C21.2427 7.05306 21.368 6.68848 21.4819 6.27832C21.6073 5.86816 21.6699 5.42952 21.6699 4.9624C21.6699 4.39274 21.5617 3.86296 21.3452 3.37305C21.1401 2.87174 20.8439 2.4388 20.4565 2.07422C20.0806 1.69824 19.6191 1.40771 19.0723 1.20264C18.5254 0.986165 17.9102 0.87793 17.2266 0.87793C16.0303 0.87793 14.965 1.12858 14.0308 1.62988C13.0965 2.11979 12.3104 2.76351 11.6724 3.56104C11.0343 4.34717 10.5501 5.23584 10.2197 6.22705C9.88932 7.20687 9.72412 8.18669 9.72412 9.1665C9.72412 9.81592 9.7526 10.4938 9.80957 11.2002C9.86654 11.9066 9.9235 12.6357 9.98047 13.3877C10.0488 14.1283 10.1115 14.8859 10.1685 15.6606C10.2254 16.4354 10.2539 17.2101 10.2539 17.9849C10.2539 19.0216 10.1799 19.9901 10.0317 20.8901C9.89502 21.7788 9.67855 22.5934 9.38232 23.334C10.009 23.8011 10.6185 24.2853 11.2109 24.7866C11.8034 25.2879 12.4072 25.7493 13.0225 26.1709C13.6491 26.5924 14.3042 26.9342 14.9878 27.1963C15.6828 27.4697 16.4404 27.6064 17.2607 27.6064C18.3203 27.6064 19.2887 27.3786 20.166 26.9229C21.0547 26.4785 21.818 25.8975 22.4561 25.1797C23.0941 24.4619 23.5897 23.6587 23.9429 22.77C24.2961 21.8813 24.4727 20.9984 24.4727 20.1211C24.4727 19.8021 24.4271 19.4261 24.3359 18.9932C24.2448 18.5602 24.0796 18.1672 23.8403 17.814L24.2505 17.4893C24.2619 17.512 24.3416 17.6203 24.4897 17.814C24.6379 17.9963 24.7974 18.2583 24.9683 18.6001C25.1392 18.9305 25.293 19.3293 25.4297 19.7964C25.5778 20.2635 25.6519 20.7933 25.6519 21.3857C25.6519 22.2288 25.498 23.0662 25.1904 23.8979C24.8828 24.7183 24.41 25.4531 23.772 26.1025C23.134 26.7633 22.3193 27.2931 21.3281 27.6919C20.3483 28.1021 19.1862 28.3071 17.8418 28.3071C16.7822 28.3071 15.848 28.1647 15.0391 27.8799C14.2301 27.6064 13.4896 27.2533 12.8174 26.8203C12.1566 26.3874 11.5299 25.9146 10.9375 25.4019C10.3564 24.8892 9.7583 24.3993 9.14307 23.9321C8.59619 25.0715 7.86702 25.9601 6.95557 26.5981C6.0555 27.2476 4.95036 27.5723 3.64014 27.5723ZM3.84521 26.9058C4.95036 26.9058 5.85612 26.5754 6.5625 25.9146C7.28027 25.2537 7.79867 24.3594 8.11768 23.2314C7.53662 22.8783 6.90999 22.5877 6.23779 22.3599C5.56559 22.132 4.80225 22.0181 3.94775 22.0181C3.77686 22.0181 3.54329 22.0465 3.24707 22.1035C2.96224 22.1605 2.67741 22.2744 2.39258 22.4453C2.11914 22.6162 1.87988 22.8669 1.6748 23.1973C1.46973 23.5163 1.36719 23.9492 1.36719 24.4961C1.36719 24.8607 1.42985 25.1911 1.55518 25.4873C1.69189 25.7721 1.86849 26.0228 2.08496 26.2393C2.31283 26.4557 2.57487 26.6209 2.87109 26.7349C3.17871 26.8488 3.50342 26.9058 3.84521 26.9058ZM30.6421 24.2227C29.9243 24.2227 29.3262 23.9321 28.8477 23.3511C28.3805 22.77 28.147 21.8927 28.147 20.7192C28.147 19.9445 28.3008 18.959 28.6084 17.7627C28.9274 16.555 29.4743 15.1935 30.249 13.6782L30.8813 13.8491C30.813 14.1453 30.6991 14.5498 30.5396 15.0625C30.3914 15.5752 30.2376 16.1506 30.0781 16.7886C29.93 17.4152 29.799 18.076 29.6851 18.771C29.5711 19.4546 29.5142 20.1154 29.5142 20.7534C29.5142 21.2889 29.554 21.7275 29.6338 22.0693C29.7135 22.3997 29.8161 22.6618 29.9414 22.8555C30.0781 23.0378 30.2319 23.1631 30.4028 23.2314C30.5851 23.2998 30.7788 23.334 30.9839 23.334C31.3143 23.334 31.6276 23.2314 31.9238 23.0264C32.2201 22.8213 32.4992 22.5535 32.7612 22.2231C33.0347 21.8813 33.2853 21.5054 33.5132 21.0952C33.7524 20.6737 33.9632 20.2521 34.1455 19.8306C34.3392 19.409 34.5101 19.0103 34.6582 18.6343C34.8063 18.2469 34.9259 17.9165 35.0171 17.6431L35.6836 17.814C35.5583 18.1558 35.4102 18.5545 35.2393 19.0103C35.0798 19.4546 34.8918 19.916 34.6753 20.3945C34.4702 20.873 34.2367 21.3402 33.9746 21.7959C33.7126 22.2516 33.4163 22.6618 33.0859 23.0264C32.7555 23.3796 32.3853 23.6701 31.9751 23.8979C31.5763 24.1144 31.132 24.2227 30.6421 24.2227ZM33.4106 8.29492C33.4106 8.69368 33.2568 9.0013 32.9492 9.21777C32.6416 9.43424 32.2542 9.54248 31.7871 9.54248C31.5479 9.54248 31.32 9.5083 31.1035 9.43994C30.8984 9.36019 30.7161 9.26335 30.5566 9.14941C30.4085 9.02409 30.2889 8.88167 30.1978 8.72217C30.118 8.55127 30.0781 8.37467 30.0781 8.19238C30.0781 7.80501 30.2262 7.4917 30.5225 7.25244C30.8301 7.01318 31.1833 6.89355 31.582 6.89355C31.8669 6.89355 32.1232 6.93913 32.3511 7.03027C32.5789 7.11003 32.7726 7.21826 32.9321 7.35498C33.0916 7.4917 33.2113 7.64551 33.291 7.81641C33.3708 7.97591 33.4106 8.13542 33.4106 8.29492ZM32.4878 8.29492C32.4878 8.18099 32.4365 8.07845 32.334 7.9873C32.2428 7.88477 32.1004 7.8335 31.9067 7.8335C31.5535 7.8335 31.377 7.96452 31.377 8.22656C31.377 8.35189 31.4282 8.46012 31.5308 8.55127C31.6447 8.63102 31.7928 8.6709 31.9751 8.6709C32.146 8.6709 32.2713 8.63672 32.3511 8.56836C32.4422 8.48861 32.4878 8.39746 32.4878 8.29492ZM36.2646 16.3442C36.1393 16.6746 36.014 16.9993 35.8887 17.3184C35.7747 17.6374 35.6437 17.9564 35.4956 18.2754C35.3589 18.5944 35.1937 18.9077 35 19.2153C34.8063 19.5229 34.5728 19.8363 34.2993 20.1553L34.1626 20.0186C34.4588 19.3008 34.7209 18.5659 34.9487 17.814C35.1766 17.062 35.4045 16.2189 35.6323 15.2847C35.5754 15.1252 35.5241 14.9884 35.4785 14.8745C35.4329 14.7606 35.3931 14.658 35.3589 14.5669C35.3247 14.4644 35.2962 14.3618 35.2734 14.2593C35.2507 14.1453 35.2393 14.02 35.2393 13.8833C35.2393 13.701 35.262 13.5016 35.3076 13.2852C35.3646 13.0573 35.4386 12.8465 35.5298 12.6528C35.6323 12.4591 35.7463 12.2996 35.8716 12.1743C35.9969 12.0376 36.1279 11.9692 36.2646 11.9692C36.4242 11.9692 36.5495 12.0091 36.6406 12.0889C36.7432 12.1572 36.8229 12.2484 36.8799 12.3623C36.9368 12.4762 36.9767 12.5959 36.9995 12.7212C37.0223 12.8465 37.0337 12.9661 37.0337 13.0801C37.0337 13.251 37.0109 13.4504 36.9653 13.6782C36.9312 13.8947 36.8856 14.1112 36.8286 14.3276C36.783 14.5327 36.7375 14.715 36.6919 14.8745C36.6577 15.034 36.6406 15.1366 36.6406 15.1821C36.7318 15.4897 36.8856 15.8031 37.1021 16.1221C37.3299 16.4411 37.5863 16.7658 37.8711 17.0962C38.1559 17.4266 38.4521 17.7741 38.7598 18.1387C39.0788 18.4919 39.3636 18.8678 39.6143 19.2666C39.8763 19.6654 40.0871 20.0926 40.2466 20.5483C40.4175 20.9927 40.5029 21.4655 40.5029 21.9668C40.5029 22.6846 40.3947 23.2656 40.1782 23.71C39.9731 24.1543 39.694 24.4961 39.3408 24.7354C39.8535 24.5303 40.332 24.1657 40.7764 23.6416C41.2321 23.1175 41.6479 22.5194 42.0239 21.8472C42.4113 21.1636 42.7645 20.4515 43.0835 19.7109C43.4139 18.9704 43.7044 18.2811 43.9551 17.6431L44.6216 17.814C44.2342 18.8052 43.8241 19.7736 43.3911 20.7192C42.9582 21.6649 42.4683 22.508 41.9214 23.2485C41.3745 23.9891 40.7536 24.5872 40.0586 25.043C39.375 25.4987 38.5889 25.7266 37.7002 25.7266C37.4609 25.7266 37.216 25.7095 36.9653 25.6753C36.7261 25.6297 36.4868 25.5671 36.2476 25.4873C36.0197 25.3962 35.8032 25.2765 35.5981 25.1284C35.3931 24.9803 35.2165 24.8037 35.0684 24.5986L35.6323 24.2227C35.7349 24.3822 35.8944 24.5303 36.1108 24.667C36.3273 24.8037 36.6121 24.8721 36.9653 24.8721C37.3071 24.8721 37.6034 24.8037 37.854 24.667C38.116 24.5189 38.3325 24.3252 38.5034 24.0859C38.6857 23.8353 38.8167 23.5448 38.8965 23.2144C38.9876 22.884 39.0332 22.5308 39.0332 22.1548C39.0332 21.38 38.9193 20.7135 38.6914 20.1553C38.4749 19.597 38.2129 19.1014 37.9053 18.6685C37.609 18.2241 37.3014 17.8197 36.9824 17.4551C36.6748 17.0905 36.4355 16.7202 36.2646 16.3442ZM40.3491 11.6104C40.52 11.7129 40.7251 11.8325 40.9644 11.9692C41.2036 12.106 41.4827 12.237 41.8018 12.3623C42.1208 12.4876 42.474 12.6073 42.8613 12.7212C43.2601 12.8237 43.693 12.8978 44.1602 12.9434C44.3197 11.918 44.5247 10.9951 44.7754 10.1748C45.026 9.3431 45.2995 8.63672 45.5957 8.05566C45.9033 7.46322 46.2166 7.01318 46.5356 6.70557C46.866 6.38656 47.1851 6.22705 47.4927 6.22705C47.8459 6.22705 48.0965 6.36377 48.2446 6.63721C48.3927 6.91064 48.4668 7.27523 48.4668 7.73096C48.4668 8.06136 48.4326 8.42594 48.3643 8.82471C48.2959 9.22347 48.2048 9.65072 48.0908 10.1064C47.9769 10.5508 47.8402 11.0179 47.6807 11.5078C47.5212 11.9863 47.356 12.4648 47.1851 12.9434C48.3244 12.8408 49.3726 12.6528 50.3296 12.3794C51.298 12.106 52.1354 11.8268 52.8418 11.542L53.1665 12.1743C52.2323 12.5275 51.2638 12.8465 50.2612 13.1313C49.2586 13.4048 48.1364 13.5757 46.8945 13.644C46.6097 14.3846 46.3135 15.091 46.0059 15.7632C45.7096 16.424 45.4362 16.9993 45.1855 17.4893C45.1969 18.1273 45.2311 18.8223 45.2881 19.5742C45.3564 20.3148 45.4818 21.0098 45.6641 21.6592C45.8577 22.3086 46.1255 22.8498 46.4673 23.2827C46.8205 23.7157 47.2819 23.9321 47.8516 23.9321C48.3301 23.9321 48.7687 23.7327 49.1675 23.334C49.5662 22.9238 49.9308 22.4111 50.2612 21.7959C50.603 21.1693 50.9163 20.4857 51.2012 19.7451C51.486 19.0046 51.7537 18.3039 52.0044 17.6431L52.6709 17.814C52.5114 18.2241 52.3405 18.6855 52.1582 19.1982C51.9759 19.7109 51.7708 20.235 51.543 20.7705C51.3151 21.2946 51.0645 21.8073 50.791 22.3086C50.5176 22.7985 50.2157 23.2428 49.8853 23.6416C49.5549 24.029 49.1903 24.3423 48.7915 24.5815C48.3927 24.8094 47.9598 24.9233 47.4927 24.9233C46.9914 24.9233 46.5186 24.8094 46.0742 24.5815C45.6413 24.3537 45.2596 23.9492 44.9292 23.3682C44.6102 22.7757 44.3538 21.9782 44.1602 20.9756C43.9779 19.9616 43.8867 18.6742 43.8867 17.1133C43.8867 15.86 43.9551 14.6922 44.0918 13.6099C43.112 13.4845 42.2917 13.2909 41.6309 13.0288C40.9587 12.7554 40.4403 12.4933 40.0757 12.2427L40.3491 11.6104ZM47.5952 7.13281C47.4927 7.13281 47.3389 7.23535 47.1338 7.44043C46.9287 7.64551 46.7122 7.98161 46.4844 8.44873C46.2565 8.90446 46.0343 9.5083 45.8179 10.2603C45.6128 11.0008 45.4476 11.918 45.3223 13.0117H45.647H46.4844C46.6895 12.4421 46.866 11.8895 47.0142 11.354C47.1737 10.8185 47.3104 10.3229 47.4243 9.86719C47.5382 9.40007 47.6237 8.98421 47.6807 8.61963C47.7376 8.24365 47.7661 7.93604 47.7661 7.69678C47.7661 7.3208 47.7091 7.13281 47.5952 7.13281ZM45.1855 16.1221C45.3792 15.7233 45.5615 15.3245 45.7324 14.9258C45.9033 14.5156 46.0685 14.0998 46.228 13.6782H45.5957H45.2539C45.2311 14.0428 45.214 14.4302 45.2026 14.8403C45.1912 15.2391 45.1855 15.6549 45.1855 16.0879V16.1221ZM55.7642 25.7607C55.1831 25.7607 54.6248 25.6582 54.0894 25.4531C53.5539 25.248 53.0811 24.9404 52.6709 24.5303C52.2721 24.1087 51.9531 23.5846 51.7139 22.958C51.4746 22.3314 51.355 21.5965 51.355 20.7534C51.355 19.728 51.5031 18.8166 51.7993 18.019C52.0955 17.2101 52.4715 16.5322 52.9272 15.9854C53.3944 15.4271 53.9128 15.0055 54.4824 14.7207C55.0521 14.4245 55.6104 14.2764 56.1572 14.2764C56.8636 14.2764 57.4219 14.5099 57.832 14.9771C58.2536 15.4442 58.4644 16.048 58.4644 16.7886C58.4644 17.4266 58.3447 18.0076 58.1055 18.5317C57.8662 19.0444 57.5472 19.4888 57.1484 19.8647C56.7611 20.2293 56.311 20.5142 55.7983 20.7192C55.297 20.9243 54.7729 21.0269 54.2261 21.0269C53.964 21.0269 53.7134 21.0155 53.4741 20.9927C53.2463 20.9585 53.0412 20.9243 52.8589 20.8901C52.9272 21.5965 53.064 22.2061 53.269 22.7188C53.4741 23.2314 53.7305 23.653 54.0381 23.9834C54.3457 24.3138 54.6875 24.5588 55.0635 24.7183C55.4508 24.8778 55.8496 24.9575 56.2598 24.9575C56.7725 24.9575 57.2453 24.8322 57.6782 24.5815C58.1112 24.3309 58.5099 24.0062 58.8745 23.6074C59.2391 23.1973 59.5695 22.7301 59.8657 22.2061C60.1733 21.682 60.4468 21.1522 60.686 20.6167C60.9253 20.0698 61.1361 19.54 61.3184 19.0273C61.512 18.5033 61.6829 18.0418 61.8311 17.6431L62.4976 17.814C62.3494 18.1899 62.1729 18.6457 61.9678 19.1812C61.7741 19.7166 61.5462 20.2806 61.2842 20.873C61.0221 21.4541 60.7145 22.0409 60.3613 22.6333C60.0081 23.2144 59.6094 23.7384 59.165 24.2056C58.7207 24.6613 58.2137 25.0373 57.644 25.3335C57.0858 25.6183 56.4591 25.7607 55.7642 25.7607ZM56.1914 14.9429C55.7699 14.9429 55.354 15.0796 54.9438 15.353C54.5451 15.6151 54.1862 15.9797 53.8672 16.4468C53.5482 16.9139 53.2861 17.4665 53.0811 18.1045C52.8874 18.7425 52.7905 19.4261 52.7905 20.1553C52.9386 20.2122 53.1437 20.2635 53.4058 20.3091C53.6792 20.3433 54.0096 20.3604 54.397 20.3604C54.8071 20.3604 55.2116 20.2749 55.6104 20.104C56.0205 19.9217 56.3851 19.6768 56.7041 19.3691C57.0345 19.0501 57.2965 18.6742 57.4902 18.2412C57.6953 17.8083 57.7979 17.3354 57.7979 16.8228C57.7979 16.5721 57.7637 16.3328 57.6953 16.105C57.627 15.8771 57.5244 15.6777 57.3877 15.5068C57.251 15.3359 57.0801 15.1992 56.875 15.0967C56.6813 14.9941 56.4535 14.9429 56.1914 14.9429ZM65.5737 25.7607C64.9927 25.7607 64.4344 25.6582 63.8989 25.4531C63.3634 25.248 62.8906 24.9404 62.4805 24.5303C62.0817 24.1087 61.7627 23.5846 61.5234 22.958C61.2842 22.3314 61.1646 21.5965 61.1646 20.7534C61.1646 19.728 61.3127 18.8166 61.6089 18.019C61.9051 17.2101 62.2811 16.5322 62.7368 15.9854C63.2039 15.4271 63.7223 15.0055 64.292 14.7207C64.8617 14.4245 65.4199 14.2764 65.9668 14.2764C66.6732 14.2764 67.2314 14.5099 67.6416 14.9771C68.0632 15.4442 68.2739 16.048 68.2739 16.7886C68.2739 17.4266 68.1543 18.0076 67.915 18.5317C67.6758 19.0444 67.3568 19.4888 66.958 19.8647C66.5706 20.2293 66.1206 20.5142 65.6079 20.7192C65.1066 20.9243 64.5825 21.0269 64.0356 21.0269C63.7736 21.0269 63.5229 21.0155 63.2837 20.9927C63.0558 20.9585 62.8507 20.9243 62.6685 20.8901C62.7368 21.5965 62.8735 22.2061 63.0786 22.7188C63.2837 23.2314 63.54 23.653 63.8477 23.9834C64.1553 24.3138 64.4971 24.5588 64.873 24.7183C65.2604 24.8778 65.6592 24.9575 66.0693 24.9575C66.582 24.9575 67.0549 24.8322 67.4878 24.5815C67.9207 24.3309 68.3195 24.0062 68.6841 23.6074C69.0487 23.1973 69.3791 22.7301 69.6753 22.2061C69.9829 21.682 70.2563 21.1522 70.4956 20.6167C70.7349 20.0698 70.9456 19.54 71.1279 19.0273C71.3216 18.5033 71.4925 18.0418 71.6406 17.6431L72.3071 17.814C72.159 18.1899 71.9824 18.6457 71.7773 19.1812C71.5837 19.7166 71.3558 20.2806 71.0938 20.873C70.8317 21.4541 70.5241 22.0409 70.1709 22.6333C69.8177 23.2144 69.4189 23.7384 68.9746 24.2056C68.5303 24.6613 68.0233 25.0373 67.4536 25.3335C66.8953 25.6183 66.2687 25.7607 65.5737 25.7607ZM66.001 14.9429C65.5794 14.9429 65.1636 15.0796 64.7534 15.353C64.3547 15.6151 63.9958 15.9797 63.6768 16.4468C63.3577 16.9139 63.0957 17.4665 62.8906 18.1045C62.6969 18.7425 62.6001 19.4261 62.6001 20.1553C62.7482 20.2122 62.9533 20.2635 63.2153 20.3091C63.4888 20.3433 63.8192 20.3604 64.2065 20.3604C64.6167 20.3604 65.0212 20.2749 65.4199 20.104C65.8301 19.9217 66.1947 19.6768 66.5137 19.3691C66.8441 19.0501 67.1061 18.6742 67.2998 18.2412C67.5049 17.8083 67.6074 17.3354 67.6074 16.8228C67.6074 16.5721 67.5732 16.3328 67.5049 16.105C67.4365 15.8771 67.334 15.6777 67.1973 15.5068C67.0605 15.3359 66.8896 15.1992 66.6846 15.0967C66.4909 14.9941 66.263 14.9429 66.001 14.9429ZM88.7134 28.8369C87.4829 28.8369 86.3721 28.6774 85.3809 28.3584C84.3896 28.0508 83.5409 27.6178 82.8345 27.0596C82.1281 26.5127 81.5812 25.8633 81.1938 25.1113C80.8179 24.3594 80.6299 23.5448 80.6299 22.6675C80.6299 22.5649 80.6299 22.4567 80.6299 22.3428C80.6299 22.2288 80.6413 22.1206 80.6641 22.0181L81.3306 22.0864C81.3078 22.189 81.2964 22.2858 81.2964 22.377C81.2964 22.4567 81.2964 22.5422 81.2964 22.6333C81.2964 23.4194 81.473 24.1486 81.8262 24.8208C82.1794 25.493 82.6693 26.0741 83.2959 26.564C83.9339 27.0653 84.6916 27.4583 85.5688 27.7432C86.4575 28.028 87.4373 28.1704 88.5083 28.1704C89.4881 28.1704 90.3426 28.028 91.0718 27.7432C91.8123 27.4583 92.4447 27.071 92.9688 26.5811C93.4928 26.0911 93.9258 25.5101 94.2676 24.8379C94.6208 24.1657 94.8999 23.4479 95.105 22.6846C95.3215 21.9212 95.481 21.1237 95.5835 20.292C95.686 19.4603 95.7544 18.6343 95.7886 17.814C95.8228 16.9937 95.8398 16.1961 95.8398 15.4214C95.8398 14.6466 95.8455 13.9289 95.8569 13.2681C95.8797 11.6388 96.0848 10.1976 96.4722 8.94434C96.8709 7.69108 97.3551 6.58594 97.9248 5.62891C97.1273 5.36686 96.3241 5.03076 95.5151 4.62061C94.7062 4.19906 93.8973 3.7889 93.0884 3.39014C92.2795 2.99137 91.4591 2.64958 90.6274 2.36475C89.8071 2.06852 88.9811 1.92041 88.1494 1.92041C86.7936 1.92041 85.6429 2.1027 84.6973 2.46729C83.7516 2.83187 82.9826 3.30469 82.3901 3.88574C81.7977 4.4554 81.3647 5.09342 81.0913 5.7998C80.8293 6.50618 80.6982 7.20687 80.6982 7.90186C80.6982 8.71077 80.8293 9.45703 81.0913 10.1406C81.3647 10.8242 81.7407 11.4167 82.2192 11.918C82.7091 12.4193 83.2845 12.8123 83.9453 13.0972C84.6061 13.3706 85.3296 13.5073 86.1157 13.5073C86.8677 13.5073 87.5456 13.3706 88.1494 13.0972C88.7646 12.8123 89.283 12.499 89.7046 12.1572C90.1375 11.8154 90.4679 11.5021 90.6958 11.2173C90.9237 10.9325 91.0433 10.7843 91.0547 10.7729L91.5845 11.166C91.5845 11.1774 91.5218 11.2686 91.3965 11.4395C91.2712 11.599 91.0832 11.7983 90.8325 12.0376C90.5933 12.2769 90.2913 12.5389 89.9268 12.8237C89.5622 13.0972 89.1349 13.3535 88.645 13.5928C88.1665 13.8206 87.631 14.0143 87.0386 14.1738C86.4575 14.3333 85.8138 14.4131 85.1074 14.4131C84.3896 14.4131 83.6548 14.2935 82.9028 14.0542C82.1623 13.8035 81.4844 13.4333 80.8691 12.9434C80.2653 12.4421 79.7697 11.8154 79.3823 11.0635C78.995 10.3115 78.8013 9.43424 78.8013 8.43164C78.8013 7.45182 78.995 6.52897 79.3823 5.66309C79.7697 4.78581 80.3337 4.02246 81.0742 3.37305C81.8148 2.72363 82.7319 2.21094 83.8257 1.83496C84.9194 1.44759 86.1727 1.25391 87.5854 1.25391C88.3032 1.25391 88.9925 1.32796 89.6533 1.47607C90.3255 1.61279 90.9692 1.79508 91.5845 2.02295C92.1997 2.25081 92.7922 2.50716 93.3618 2.79199C93.9429 3.07682 94.5068 3.36165 95.0537 3.64648C95.612 3.93132 96.1532 4.19906 96.6772 4.44971C97.2127 4.70036 97.7425 4.90544 98.2666 5.06494C98.6882 4.43831 99.1097 3.89144 99.5312 3.42432C99.9528 2.95719 100.334 2.56982 100.676 2.26221C101.029 1.95459 101.314 1.72103 101.531 1.56152C101.747 1.40202 101.861 1.31087 101.873 1.28809L102.266 1.85205C102.186 1.89762 102.038 2.00016 101.821 2.15967C101.616 2.31917 101.371 2.54704 101.086 2.84326C100.813 3.12809 100.517 3.47559 100.198 3.88574C99.8901 4.2959 99.5882 4.77441 99.292 5.32129C99.4629 5.34408 99.6281 5.36117 99.7876 5.37256C99.9471 5.38395 100.118 5.38965 100.3 5.38965C101.132 5.38965 101.873 5.28711 102.522 5.08203C103.183 4.86556 103.758 4.59782 104.248 4.27881C104.749 3.9484 105.177 3.59521 105.53 3.21924C105.883 2.83187 106.168 2.47298 106.384 2.14258C106.612 1.80078 106.777 1.51595 106.88 1.28809C106.994 1.04883 107.062 0.912109 107.085 0.87793L107.717 1.08301C107.706 1.0944 107.643 1.22542 107.529 1.47607C107.415 1.72673 107.233 2.04004 106.982 2.41602C106.743 2.7806 106.43 3.17367 106.042 3.59521C105.655 4.01676 105.188 4.40983 104.641 4.77441C104.094 5.139 103.456 5.44661 102.727 5.69727C102.009 5.93652 101.189 6.05615 100.266 6.05615C100.05 6.05615 99.8332 6.04476 99.6167 6.02197C99.4002 5.99919 99.1838 5.95931 98.9673 5.90234C98.6141 6.6429 98.3179 7.4917 98.0786 8.44873C97.8507 9.39437 97.7368 10.4482 97.7368 11.6104C97.7368 12.5674 97.7767 13.5643 97.8564 14.6011C97.9476 15.6265 97.9932 16.6519 97.9932 17.6772C97.9932 19.2609 97.8166 20.7363 97.4634 22.1035C97.1216 23.4593 96.5747 24.6385 95.8228 25.6411C95.0708 26.6323 94.1081 27.4128 92.9346 27.9824C91.7611 28.5521 90.354 28.8369 88.7134 28.8369ZM105.171 16.9082C105.057 17.307 104.943 17.6488 104.829 17.9336C104.715 18.2184 104.59 18.4862 104.453 18.7368C104.316 18.9761 104.163 19.2096 103.992 19.4375C103.832 19.654 103.65 19.8932 103.445 20.1553L103.308 20.0186C103.57 19.3464 103.798 18.714 103.992 18.1216C104.197 17.5291 104.379 16.9367 104.539 16.3442C104.356 16.0822 104.197 15.7575 104.06 15.3701C103.935 14.9714 103.872 14.4985 103.872 13.9517C103.872 13.4618 103.946 13.0573 104.094 12.7383C104.254 12.4079 104.459 12.2427 104.709 12.2427C104.846 12.2427 104.972 12.3053 105.085 12.4307C105.211 12.556 105.313 12.7212 105.393 12.9263C105.473 13.1313 105.535 13.3706 105.581 13.644C105.627 13.9061 105.649 14.1852 105.649 14.4814C105.649 14.6182 105.638 14.7663 105.615 14.9258C105.604 15.0853 105.587 15.2505 105.564 15.4214C105.541 15.5809 105.513 15.7404 105.479 15.8999C105.444 16.048 105.41 16.1733 105.376 16.2759C105.444 16.3328 105.553 16.3841 105.701 16.4297C105.86 16.4639 106.065 16.481 106.316 16.481C106.749 16.481 107.131 16.4183 107.461 16.293C107.791 16.1676 108.053 16.0081 108.247 15.8145C108.418 15.541 108.549 15.3302 108.64 15.1821C108.743 15.034 108.822 14.9258 108.879 14.8574C108.936 14.7777 108.976 14.7321 108.999 14.7207C109.033 14.6979 109.073 14.6865 109.119 14.6865C109.244 14.6865 109.347 14.7207 109.426 14.7891C109.506 14.8574 109.546 14.9543 109.546 15.0796C109.546 15.1138 109.529 15.1593 109.495 15.2163C109.46 15.2733 109.415 15.3473 109.358 15.4385C108.879 16.1335 108.503 16.8968 108.23 17.7285C107.957 18.5602 107.82 19.4831 107.82 20.4971C107.82 21.6706 108.008 22.5194 108.384 23.0435C108.771 23.5675 109.318 23.8296 110.024 23.8296C110.412 23.8296 110.782 23.7157 111.135 23.4878C111.488 23.2485 111.836 22.884 112.178 22.394C112.52 21.8927 112.861 21.2547 113.203 20.48C113.556 19.6938 113.932 18.7482 114.331 17.6431L114.998 17.814C114.508 19.2609 114.046 20.4515 113.613 21.3857C113.18 22.3086 112.753 23.0435 112.332 23.5903C111.91 24.1258 111.477 24.5018 111.033 24.7183C110.588 24.9233 110.104 25.0259 109.58 25.0259C109.25 25.0259 108.908 24.9518 108.555 24.8037C108.201 24.6556 107.877 24.422 107.581 24.103C107.296 23.784 107.062 23.3739 106.88 22.8726C106.698 22.3599 106.606 21.7446 106.606 21.0269C106.606 20.6737 106.635 20.3091 106.692 19.9331C106.76 19.5457 106.846 19.1755 106.948 18.8223C107.051 18.4577 107.165 18.1102 107.29 17.7798C107.415 17.438 107.546 17.1304 107.683 16.8569C107.273 17.0506 106.829 17.1475 106.35 17.1475C105.883 17.1475 105.49 17.0677 105.171 16.9082ZM127.49 17.814C127.023 19.0786 126.596 20.1382 126.208 20.9927C125.833 21.8472 125.462 22.5365 125.098 23.0605C124.744 23.5846 124.391 23.9606 124.038 24.1885C123.685 24.4163 123.298 24.5303 122.876 24.5303C122.363 24.5303 121.925 24.3537 121.56 24.0005C121.195 23.6359 120.968 23.0776 120.876 22.3257C120.512 23.1118 120.039 23.7555 119.458 24.2568C118.877 24.7467 118.148 24.9917 117.271 24.9917C116.803 24.9917 116.353 24.9062 115.92 24.7354C115.499 24.5645 115.123 24.3024 114.792 23.9492C114.462 23.5846 114.194 23.1289 113.989 22.582C113.796 22.0352 113.699 21.3914 113.699 20.6509C113.699 19.8989 113.79 19.1925 113.972 18.5317C114.166 17.8709 114.417 17.2671 114.724 16.7202C115.032 16.1619 115.385 15.6663 115.784 15.2334C116.194 14.8005 116.615 14.4359 117.048 14.1396C117.481 13.8434 117.914 13.6156 118.347 13.4561C118.78 13.2965 119.179 13.2168 119.543 13.2168C119.862 13.2168 120.17 13.2567 120.466 13.3364C120.763 13.4162 121.025 13.5472 121.252 13.7295C121.492 13.9004 121.68 14.134 121.816 14.4302C121.965 14.7264 122.039 15.0967 122.039 15.541C122.039 16.0651 121.936 16.5208 121.731 16.9082C121.537 17.2956 121.298 17.6203 121.013 17.8823C120.74 18.1444 120.455 18.3551 120.159 18.5146C119.874 18.6742 119.646 18.7881 119.475 18.8564L119.27 18.1899C119.304 18.1899 119.43 18.1444 119.646 18.0532C119.874 17.9621 120.107 17.814 120.347 17.6089C120.597 17.3924 120.825 17.119 121.03 16.7886C121.235 16.4582 121.338 16.0537 121.338 15.5752C121.338 15.0283 121.184 14.6125 120.876 14.3276C120.569 14.0314 120.176 13.8833 119.697 13.8833C119.333 13.8833 118.905 14.0143 118.416 14.2764C117.926 14.5384 117.453 14.9486 116.997 15.5068C116.553 16.0651 116.171 16.7715 115.852 17.626C115.544 18.4805 115.391 19.5002 115.391 20.6851C115.391 21.8586 115.596 22.7529 116.006 23.3682C116.427 23.9834 116.991 24.291 117.698 24.291C118.051 24.291 118.387 24.1942 118.706 24.0005C119.036 23.7954 119.338 23.5277 119.612 23.1973C119.885 22.8669 120.13 22.4852 120.347 22.0522C120.563 21.6079 120.751 21.1522 120.911 20.6851C120.911 20.3205 120.951 19.8932 121.03 19.4033C121.121 18.902 121.258 18.395 121.44 17.8823L122.483 18.2241C122.426 18.3722 122.369 18.5659 122.312 18.8052C122.255 19.0444 122.198 19.3065 122.141 19.5913C122.096 19.8761 122.056 20.1724 122.021 20.48C121.987 20.7762 121.97 21.0667 121.97 21.3516C121.97 22.2402 122.056 22.8555 122.227 23.1973C122.409 23.5277 122.716 23.6929 123.149 23.6929C123.4 23.6929 123.645 23.6017 123.884 23.4194C124.135 23.2371 124.403 22.9181 124.688 22.4624C124.972 22.0067 125.286 21.3914 125.627 20.6167C125.969 19.8306 126.368 18.8394 126.824 17.6431L127.49 17.814ZM138.889 17.814C138.536 18.6571 138.2 19.3805 137.881 19.9844C137.573 20.5882 137.266 21.0895 136.958 21.4883C136.65 21.8757 136.331 22.1662 136.001 22.3599C135.682 22.5422 135.334 22.6333 134.958 22.6333C134.446 22.6333 134.007 22.4738 133.643 22.1548C133.289 21.8244 133.079 21.4142 133.01 20.9243C132.691 21.6649 132.355 22.3314 132.002 22.9238C131.649 23.5049 131.296 24.0005 130.942 24.4106C130.589 24.8208 130.247 25.1398 129.917 25.3677C129.587 25.5841 129.296 25.6924 129.045 25.6924C128.84 25.6924 128.584 25.6069 128.276 25.436C127.98 25.2651 127.695 24.9803 127.422 24.5815C127.148 24.1828 126.915 23.6587 126.721 23.0093C126.528 22.3485 126.431 21.5396 126.431 20.5825C126.431 19.9559 126.471 19.3805 126.55 18.8564C126.641 18.321 126.738 17.8595 126.841 17.4722C126.966 17.0164 127.109 16.6063 127.268 16.2417L127.935 16.3101C127.878 16.8 127.838 17.2785 127.815 17.7456C127.804 18.2013 127.798 18.64 127.798 19.0615C127.798 20.0072 127.843 20.8503 127.935 21.5908C128.026 22.3314 128.134 22.958 128.259 23.4707C128.396 23.972 128.544 24.3594 128.704 24.6328C128.863 24.8949 129.011 25.0259 129.148 25.0259C129.307 25.0259 129.53 24.9006 129.814 24.6499C130.099 24.3879 130.413 24.029 130.754 23.5732C131.096 23.1175 131.444 22.582 131.797 21.9668C132.15 21.3516 132.469 20.6908 132.754 19.9844C132.72 19.7679 132.68 19.5059 132.634 19.1982C132.6 18.8792 132.583 18.6058 132.583 18.3779C132.583 17.626 132.646 17.0221 132.771 16.5664C132.908 16.1107 133.062 15.7632 133.232 15.5239C133.415 15.2847 133.597 15.1309 133.779 15.0625C133.962 14.9827 134.098 14.9429 134.189 14.9429C134.497 14.9429 134.651 15.1764 134.651 15.6436C134.651 15.8828 134.617 16.1733 134.548 16.5151C134.491 16.8569 134.412 17.2158 134.309 17.5918C134.218 17.9678 134.11 18.3438 133.984 18.7197C133.859 19.0957 133.728 19.4432 133.591 19.7622C133.591 20.161 133.631 20.4971 133.711 20.7705C133.802 21.0326 133.916 21.249 134.053 21.4199C134.201 21.5794 134.366 21.6934 134.548 21.7617C134.731 21.8301 134.919 21.8643 135.112 21.8643C135.602 21.8643 136.098 21.5225 136.599 20.8389C137.1 20.1439 137.642 19.0786 138.223 17.6431L138.889 17.814ZM141.965 25.7607C141.384 25.7607 140.826 25.6582 140.291 25.4531C139.755 25.248 139.282 24.9404 138.872 24.5303C138.473 24.1087 138.154 23.5846 137.915 22.958C137.676 22.3314 137.556 21.5965 137.556 20.7534C137.556 19.728 137.704 18.8166 138 18.019C138.297 17.2101 138.673 16.5322 139.128 15.9854C139.596 15.4271 140.114 15.0055 140.684 14.7207C141.253 14.4245 141.812 14.2764 142.358 14.2764C143.065 14.2764 143.623 14.5099 144.033 14.9771C144.455 15.4442 144.666 16.048 144.666 16.7886C144.666 17.4266 144.546 18.0076 144.307 18.5317C144.067 19.0444 143.748 19.4888 143.35 19.8647C142.962 20.2293 142.512 20.5142 142 20.7192C141.498 20.9243 140.974 21.0269 140.427 21.0269C140.165 21.0269 139.915 21.0155 139.675 20.9927C139.447 20.9585 139.242 20.9243 139.06 20.8901C139.128 21.5965 139.265 22.2061 139.47 22.7188C139.675 23.2314 139.932 23.653 140.239 23.9834C140.547 24.3138 140.889 24.5588 141.265 24.7183C141.652 24.8778 142.051 24.9575 142.461 24.9575C142.974 24.9575 143.446 24.8322 143.879 24.5815C144.312 24.3309 144.711 24.0062 145.076 23.6074C145.44 23.1973 145.771 22.7301 146.067 22.2061C146.375 21.682 146.648 21.1522 146.887 20.6167C147.126 20.0698 147.337 19.54 147.52 19.0273C147.713 18.5033 147.884 18.0418 148.032 17.6431L148.699 17.814C148.551 18.1899 148.374 18.6457 148.169 19.1812C147.975 19.7166 147.747 20.2806 147.485 20.873C147.223 21.4541 146.916 22.0409 146.562 22.6333C146.209 23.2144 145.811 23.7384 145.366 24.2056C144.922 24.6613 144.415 25.0373 143.845 25.3335C143.287 25.6183 142.66 25.7607 141.965 25.7607ZM142.393 14.9429C141.971 14.9429 141.555 15.0796 141.145 15.353C140.746 15.6151 140.387 15.9797 140.068 16.4468C139.749 16.9139 139.487 17.4665 139.282 18.1045C139.089 18.7425 138.992 19.4261 138.992 20.1553C139.14 20.2122 139.345 20.2635 139.607 20.3091C139.88 20.3433 140.211 20.3604 140.598 20.3604C141.008 20.3604 141.413 20.2749 141.812 20.104C142.222 19.9217 142.586 19.6768 142.905 19.3691C143.236 19.0501 143.498 18.6742 143.691 18.2412C143.896 17.8083 143.999 17.3354 143.999 16.8228C143.999 16.5721 143.965 16.3328 143.896 16.105C143.828 15.8771 143.726 15.6777 143.589 15.5068C143.452 15.3359 143.281 15.1992 143.076 15.0967C142.882 14.9941 142.655 14.9429 142.393 14.9429ZM153.945 4.4668C153.945 5.18457 153.86 5.94792 153.689 6.75684C153.529 7.56576 153.313 8.38607 153.04 9.21777C152.778 10.0495 152.47 10.8869 152.117 11.73C151.775 12.5731 151.427 13.382 151.074 14.1567C150.721 14.9315 150.374 15.6663 150.032 16.3613C149.69 17.0563 149.388 17.6772 149.126 18.2241C149.172 19.1584 149.251 20.0015 149.365 20.7534C149.479 21.5054 149.622 22.1491 149.792 22.6846C149.963 23.2087 150.168 23.6131 150.408 23.8979C150.647 24.1828 150.92 24.3252 151.228 24.3252C151.57 24.3252 151.906 24.1657 152.236 23.8467C152.578 23.5277 152.92 23.0776 153.262 22.4966C153.604 21.9155 153.951 21.2148 154.304 20.3945C154.657 19.5742 155.016 18.6571 155.381 17.6431L156.047 17.814C155.774 18.6001 155.466 19.4318 155.125 20.3091C154.783 21.175 154.401 21.9725 153.979 22.7017C153.558 23.4308 153.097 24.0347 152.595 24.5132C152.105 24.9917 151.576 25.231 151.006 25.231C150.436 25.231 149.958 25.0544 149.57 24.7012C149.183 24.348 148.864 23.8866 148.613 23.3169C148.363 22.7358 148.169 22.0807 148.032 21.3516C147.896 20.611 147.793 19.859 147.725 19.0957C147.656 18.3324 147.616 17.5918 147.605 16.874C147.594 16.1449 147.588 15.5011 147.588 14.9429C147.588 13.9061 147.628 12.875 147.708 11.8496C147.799 10.8242 147.93 9.8444 148.101 8.91016C148.283 7.97591 148.499 7.11003 148.75 6.3125C149.001 5.50358 149.291 4.80859 149.622 4.22754C149.963 3.63509 150.334 3.17367 150.732 2.84326C151.143 2.51286 151.587 2.34766 152.065 2.34766C152.407 2.34766 152.698 2.40462 152.937 2.51855C153.176 2.63249 153.37 2.7863 153.518 2.97998C153.666 3.17367 153.774 3.40153 153.843 3.66357C153.911 3.91423 153.945 4.18197 153.945 4.4668ZM149.023 14.3105C149.023 14.7435 149.023 15.1707 149.023 15.5923C149.023 16.0024 149.035 16.4012 149.058 16.7886C149.342 16.2189 149.644 15.598 149.963 14.9258C150.282 14.2422 150.596 13.5415 150.903 12.8237C151.222 12.0946 151.524 11.3597 151.809 10.6191C152.094 9.87858 152.345 9.15511 152.561 8.44873C152.778 7.73096 152.948 7.05306 153.074 6.41504C153.21 5.76562 153.279 5.17887 153.279 4.65479C153.279 4.48389 153.262 4.3016 153.228 4.10791C153.205 3.91423 153.153 3.73763 153.074 3.57812C153.005 3.40723 152.903 3.27051 152.766 3.16797C152.629 3.05404 152.453 2.99707 152.236 2.99707C151.803 2.99707 151.388 3.2819 150.989 3.85156C150.601 4.40983 150.26 5.19027 149.963 6.19287C149.679 7.19548 149.451 8.39176 149.28 9.78174C149.109 11.1603 149.023 12.6699 149.023 14.3105Z" fill="#EE1C45"/>
</svg>
